<svg width="21" height="19" viewBox="0 0 21 19" fill="none" xmlns="http://www.w3.org/2000/svg">
<path d="M6.95618 0.879217C11.3503 -0.292059 15.9034 2.47648 17.126 7.06291C17.6906 9.18109 17.4436 11.3153 16.5841 13.1156L19.6489 14.9792C20.4432 15.4621 20.7233 16.5136 20.2749 17.3278C19.8264 18.1421 18.8191 18.4106 18.0248 17.9276L14.5429 15.8104C13.6532 16.5826 12.5873 17.1673 11.3834 17.4882C6.98935 18.6595 2.43618 15.8909 1.21362 11.3045C-0.00892679 6.71804 2.5621 2.05049 6.95618 0.879217ZM7.84163 4.20101C5.20519 4.90377 3.66257 7.7043 4.3961 10.4562C5.12963 13.208 7.86153 14.8691 10.498 14.1664C13.1344 13.4636 14.677 10.6631 13.9435 7.91123C13.21 5.15936 10.4781 3.49824 7.84163 4.20101Z" fill="url(#paint0_linear_684_2691)"/>
<defs>
<linearGradient id="paint0_linear_684_2691" x1="7.38187" y1="0.765746" x2="12.4887" y2="19.9243" gradientUnits="userSpaceOnUse">
<stop stop-color="#565656"/>
<stop offset="1" stop-color="#8C8C8C"/>
</linearGradient>
</defs>
</svg>
