<svg width="23" height="23" viewBox="0 0 23 23" fill="none" xmlns="http://www.w3.org/2000/svg">
<path d="M16.1426 1.95605C16.3189 1.95614 16.4529 2.01244 16.5732 2.13281C16.6935 2.25321 16.75 2.38704 16.75 2.56348V3.87305H18.0459C18.6229 3.87315 19.0949 4.06856 19.4922 4.46582C19.8894 4.86311 20.0849 5.33501 20.085 5.91211V19.0039C20.085 19.5812 19.8896 20.0538 19.4922 20.4512C19.095 20.8483 18.6229 21.0438 18.0459 21.0439H4.9541C4.37691 21.0439 3.90418 20.8484 3.50684 20.4512C3.10947 20.0538 2.91406 19.5812 2.91406 19.0039V5.91211C2.91411 5.33502 3.10962 4.86311 3.50684 4.46582C3.9042 4.06845 4.37685 3.87305 4.9541 3.87305H6.25V2.56348C6.25 2.39026 6.30492 2.25702 6.42871 2.13574C6.555 2.01203 6.69344 1.9561 6.87012 1.95605C7.04664 1.95605 7.18034 2.0124 7.30078 2.13281C7.42124 2.25327 7.47754 2.38692 7.47754 2.56348V3.87305H15.5215V2.56348C15.5215 2.39026 15.5774 2.25702 15.7012 2.13574C15.8274 2.01219 15.9659 1.95605 16.1426 1.95605ZM4.4541 19.5039H18.5459V9.08301H4.4541V19.5039ZM4.4541 8.16699H18.5459V5.41211H4.4541V8.16699Z" fill="url(#paint0_linear_684_2681)" stroke="url(#paint1_linear_684_2681)"/>
<defs>
<linearGradient id="paint0_linear_684_2681" x1="11.4995" y1="1.45605" x2="11.4995" y2="21.5437" gradientUnits="userSpaceOnUse">
<stop stop-color="#565656"/>
<stop offset="1" stop-color="#8C8C8C"/>
</linearGradient>
<linearGradient id="paint1_linear_684_2681" x1="11.4995" y1="1.45605" x2="11.4995" y2="21.5437" gradientUnits="userSpaceOnUse">
<stop stop-color="#565656"/>
<stop offset="1" stop-color="#8C8C8C"/>
</linearGradient>
</defs>
</svg>
