<svg width="18" height="18" viewBox="0 0 18 18" fill="none" xmlns="http://www.w3.org/2000/svg">
<path d="M9.01916 9.40967L11.9427 6.48598C12.0965 6.33223 12.2833 6.25411 12.5031 6.25161C12.7227 6.24923 12.9119 6.32736 13.0707 6.48598C13.2293 6.64473 13.3086 6.83273 13.3086 7.04998C13.3086 7.26723 13.2293 7.45523 13.0707 7.61398L9.66247 11.0222C9.56722 11.1173 9.46816 11.1855 9.36528 11.2269C9.26241 11.2683 9.14703 11.289 9.01916 11.289C8.89128 11.289 8.77591 11.2683 8.67303 11.2269C8.57016 11.1855 8.47109 11.1173 8.37584 11.0222L4.96766 7.61398C4.81391 7.46011 4.73578 7.2733 4.73328 7.05355C4.73091 6.83392 4.80903 6.64473 4.96766 6.48598C5.12641 6.32736 5.31441 6.24805 5.53166 6.24805C5.74891 6.24805 5.93691 6.32736 6.09566 6.48598L9.01916 9.40967Z" fill="url(#paint0_linear_684_2561)"/>
<defs>
<linearGradient id="paint0_linear_684_2561" x1="13.3086" y1="8.76852" x2="4.73323" y2="8.76852" gradientUnits="userSpaceOnUse">
<stop stop-color="#565656"/>
<stop offset="1" stop-color="#8C8C8C"/>
</linearGradient>
</defs>
</svg>
