<svg width="32" height="32" viewBox="0 0 32 32" fill="none" xmlns="http://www.w3.org/2000/svg">
<path d="M15.1269 19.1986L10.4252 14.5306C10.3452 14.4513 10.283 14.3635 10.2385 14.2673C10.1941 14.1711 10.1719 14.068 10.1719 13.958C10.1719 13.7382 10.2454 13.5457 10.3925 13.3806C10.5397 13.2157 10.7335 13.1333 10.9742 13.1333H21.0255C21.2662 13.1333 21.4601 13.2175 21.6072 13.386C21.7543 13.5542 21.8279 13.7505 21.8279 13.975C21.8279 14.0601 21.7433 14.2453 21.5742 14.5306L16.8729 19.1986C16.7542 19.3175 16.6231 19.4103 16.4795 19.477C16.336 19.5436 16.1781 19.577 16.0059 19.577C15.8337 19.577 15.6738 19.5436 15.5262 19.477C15.3787 19.4103 15.2455 19.3175 15.1269 19.1986Z" fill="#1F1F1F"/>
</svg>
