<svg width="35" height="33" viewBox="0 0 35 33" fill="none" xmlns="http://www.w3.org/2000/svg">
<rect width="35" height="33" rx="3" transform="matrix(1 8.74228e-08 8.74228e-08 -1 0 33)" fill="url(#paint0_radial_821_58)"/>
<rect x="0.5" y="-0.5" width="34" height="32" rx="2.5" transform="matrix(1 8.74228e-08 8.74228e-08 -1 4.37114e-08 32)" stroke="#565656" stroke-opacity="0.06"/>
<mask id="path-3-outside-1_821_58" maskUnits="userSpaceOnUse" x="11" y="10" width="14" height="13" fill="black">
<rect fill="white" x="11" y="10" width="14" height="13"/>
<path d="M12.0703 10.6875H14.5703L17.9297 18.9062H18.0703L21.4297 10.6875H23.9297V22H21.9766V14.2188H21.8672L18.7266 21.9688H17.2734L14.1328 14.1875H14.0391V22H12.0703V10.6875Z"/>
</mask>
<path d="M12.0703 10.6875H14.5703L17.9297 18.9062H18.0703L21.4297 10.6875H23.9297V22H21.9766V14.2188H21.8672L18.7266 21.9688H17.2734L14.1328 14.1875H14.0391V22H12.0703V10.6875Z" fill="url(#paint1_linear_821_58)"/>
<path d="M12.0703 10.6875V10.1875H11.5703V10.6875H12.0703ZM14.5703 10.6875L15.0331 10.4983L14.9061 10.1875H14.5703V10.6875ZM17.9297 18.9062L17.4669 19.0954L17.5939 19.4062H17.9297V18.9062ZM18.0703 18.9062V19.4062H18.4061L18.5331 19.0954L18.0703 18.9062ZM21.4297 10.6875V10.1875H21.0939L20.9669 10.4983L21.4297 10.6875ZM23.9297 10.6875H24.4297V10.1875H23.9297V10.6875ZM23.9297 22V22.5H24.4297V22H23.9297ZM21.9766 22H21.4766V22.5H21.9766V22ZM21.9766 14.2188H22.4766V13.7188H21.9766V14.2188ZM21.8672 14.2188V13.7188H21.5303L21.4038 14.031L21.8672 14.2188ZM18.7266 21.9688V22.4688H19.0634L19.19 22.1565L18.7266 21.9688ZM17.2734 21.9688L16.8098 22.1559L16.9361 22.4688H17.2734V21.9688ZM14.1328 14.1875L14.5965 14.0004L14.4702 13.6875H14.1328V14.1875ZM14.0391 14.1875V13.6875H13.5391V14.1875H14.0391ZM14.0391 22V22.5H14.5391V22H14.0391ZM12.0703 22H11.5703V22.5H12.0703V22ZM12.0703 10.6875V11.1875H14.5703V10.6875V10.1875H12.0703V10.6875ZM14.5703 10.6875L14.1075 10.8767L17.4669 19.0954L17.9297 18.9062L18.3925 18.7171L15.0331 10.4983L14.5703 10.6875ZM17.9297 18.9062V19.4062H18.0703V18.9062V18.4062H17.9297V18.9062ZM18.0703 18.9062L18.5331 19.0954L21.8925 10.8767L21.4297 10.6875L20.9669 10.4983L17.6075 18.7171L18.0703 18.9062ZM21.4297 10.6875V11.1875H23.9297V10.6875V10.1875H21.4297V10.6875ZM23.9297 10.6875H23.4297V22H23.9297H24.4297V10.6875H23.9297ZM23.9297 22V21.5H21.9766V22V22.5H23.9297V22ZM21.9766 22H22.4766V14.2188H21.9766H21.4766V22H21.9766ZM21.9766 14.2188V13.7188H21.8672V14.2188V14.7188H21.9766V14.2188ZM21.8672 14.2188L21.4038 14.031L18.2632 21.781L18.7266 21.9688L19.19 22.1565L22.3306 14.4065L21.8672 14.2188ZM18.7266 21.9688V21.4688H17.2734V21.9688V22.4688H18.7266V21.9688ZM17.2734 21.9688L17.7371 21.7816L14.5965 14.0004L14.1328 14.1875L13.6692 14.3746L16.8098 22.1559L17.2734 21.9688ZM14.1328 14.1875V13.6875H14.0391V14.1875V14.6875H14.1328V14.1875ZM14.0391 14.1875H13.5391V22H14.0391H14.5391V14.1875H14.0391ZM14.0391 22V21.5H12.0703V22V22.5H14.0391V22ZM12.0703 22H12.5703V10.6875H12.0703H11.5703V22H12.0703Z" fill="white" fill-opacity="0.3" mask="url(#path-3-outside-1_821_58)"/>
<defs>
<radialGradient id="paint0_radial_821_58" cx="0" cy="0" r="1" gradientUnits="userSpaceOnUse" gradientTransform="translate(17.5 16.5) rotate(-89.7087) scale(14.6487 15.5363)">
<stop stop-color="#F3F3F3"/>
<stop offset="1" stop-color="white" stop-opacity="0.9"/>
</radialGradient>
<linearGradient id="paint1_linear_821_58" x1="18" y1="7" x2="18" y2="26" gradientUnits="userSpaceOnUse">
<stop stop-color="#565656"/>
<stop offset="1" stop-color="#8C8C8C"/>
</linearGradient>
</defs>
</svg>
